<svg height="512" viewBox="0 0 64 64" width="512" xmlns="http://www.w3.org/2000/svg"><path d="m41 61a2.006 2.006 0 0 0 2-2v-12.76a9.946 9.946 0 0 0 2.23-1.18l.01.01 1.76 1.76v12.17a2.006 2.006 0 0 1 -2 2z" fill="#bddbff"/><path d="m48.19 48.02.01.01-.71.7 2.82 2.83h.01l.68.68v6.76a2.006 2.006 0 0 1 -2 2h-4a2.006 2.006 0 0 0 2-2v-12.17z" fill="#bddbff"/><path d="m60.92 53.68-6.36-6.36-3.56 3.55-.68.69.68.68 5.68 5.68a1 1 0 0 0 1.41 0l2.83-2.83a1 1 0 0 0 0-1.41z" fill="#bddbff"/><path d="m48.07 42.24-.01-.01a10.943 10.943 0 0 1 -1.06 1.32c-.07.08-.14.15-.22.23a10.434 10.434 0 0 1 -1.55 1.28l.01.01 1.76 1.76 1.19 1.19.01.01 2.8-2.81v-.05z" fill="#bddbff"/><path d="m37 11v8l-2-3-2 3v-8z" fill="#bddbff"/><path d="m51 11v34.17l-2.93-2.93-.01-.01a11 11 0 0 0 -1.06-13.78v-17.45z" fill="#bddbff"/><path d="m46.78 28.22a10.821 10.821 0 0 0 -3.78-2.46v-14.76h4v17.45c-.07-.08-.14-.15-.22-.23z" fill="#bddbff"/><path d="m20 22v2h-1.17a2.006 2.006 0 0 1 -1.42-.59l-1.41-1.41-.83.83a4 4 0 0 1 -2.83 1.17h-2.34v-2a5 5 0 0 1 10 0z" fill="#bddbff"/><path d="m23 38v3h-16v-3a6 6 0 0 1 6-6l2 2 2-2a6 6 0 0 1 6 6z" fill="#bddbff"/><path d="m47 3h4v8h-4z" fill="#bddbff"/><path d="m43 3h4v8h-4z" fill="#bddbff"/><path d="m43 3v8h-6-4-30v-8z" fill="#bddbff"/><g fill="#3d9ae2"><path d="m18 31.071v-1.1a4.977 4.977 0 0 0 2-3.971v-1a1 1 0 0 0 1-1v-2a6 6 0 0 0 -12 0v2a1 1 0 0 0 1 1v1a4.977 4.977 0 0 0 2 3.974v1.1a7.011 7.011 0 0 0 -6 6.926v3a1 1 0 0 0 1 1h16a1 1 0 0 0 1-1v-3a7.011 7.011 0 0 0 -6-6.929zm-7-9.071a4 4 0 0 1 8 0v1h-.172a1 1 0 0 1 -.707-.293l-1.414-1.414a1 1 0 0 0 -1.414 0l-.828.828a2.98 2.98 0 0 1 -2.122.879h-1.343zm1.343 3a4.969 4.969 0 0 0 3.536-1.465l.121-.121.707.707a2.98 2.98 0 0 0 1.293.749v1.13a3 3 0 0 1 -6 0v-1zm2.657 6a5 5 0 0 0 1-.1v.687l-1 1-1-1v-.687a5 5 0 0 0 1 .1zm7 9h-14v-2a4.991 4.991 0 0 1 4.624-4.962l1.669 1.669a1 1 0 0 0 1.414 0l1.669-1.669a4.991 4.991 0 0 1 4.624 4.962z"/><path d="m6 46h4v2h-4z"/><path d="m12 46h10v2h-10z"/><path d="m26 46h4v2h-4z"/><path d="m6 50h8v2h-8z"/><path d="m16 50h2v2h-2z"/><path d="m20 50h2v2h-2z"/><path d="m26 50h8v2h-8z"/><path d="m36 50h4v2h-4z"/><path d="m6 54h16v2h-16z"/><path d="m26 54h14v2h-14z"/><path d="m44.657 30.343a8 8 0 1 0 0 11.314 8.01 8.01 0 0 0 0-11.314zm-1.414 9.9a6 6 0 1 1 0-8.486 6.012 6.012 0 0 1 0 8.486z"/><path d="m61.627 52.971-9.192-9.193a.982.982 0 0 0 -.435-.24v-40.538a1 1 0 0 0 -1-1h-48a1 1 0 0 0 -1 1v56a3 3 0 0 0 3 3h44a3 3 0 0 0 3-3v-4.344l3.971 3.971a2 2 0 0 0 2.828 0l2.828-2.827a2 2 0 0 0 0-2.829zm-8.485-5.657-2.828 2.828-1.414-1.414 2.828-2.828zm-21.213-4.243a10 10 0 1 1 14.142 0 10.009 10.009 0 0 1 -14.142 0zm12.071-31.071h2v14.27a11.874 11.874 0 0 0 -2-1.164zm6 30.757-.672-.672a12.05 12.05 0 0 0 .672-1.314zm0-11.528a11.907 11.907 0 0 0 -2-3.145v-16.084h2zm-2.515 13.256c.239-.238.458-.49.672-.743l1.45 1.45-1.415 1.415-1.45-1.45c.258-.214.505-.433.743-.672zm2.515-34.485h-2v-6h2zm-4 0h-2v-6h2zm-4-6v6h-38v-6zm-8 8h2v3.7l-.168-.252a1.039 1.039 0 0 0 -1.664 0l-.168.252zm-29 48a1 1 0 0 1 -1-1v-47h28v7a1 1 0 0 0 1.832.555l1.168-1.755 1.168 1.752a1 1 0 0 0 1.832-.552v-7h4v12.4a11.995 11.995 0 1 0 0 23.2v11.4a1 1 0 0 1 -1 1zm39 0h-.184a2.966 2.966 0 0 0 .184-1v-12.106a12.032 12.032 0 0 0 1.085-.566l.915.915v11.757a1 1 0 0 1 -1 1zm6-1a1 1 0 0 1 -1 1h-1.184a2.966 2.966 0 0 0 .184-1v-8.344l2 2zm7.385-1.787-5.657-5.657 2.828-2.828 5.658 5.656z"/></g></svg>