<svg height="512" viewBox="0 0 64 64" width="512" xmlns="http://www.w3.org/2000/svg"><path d="m55 10v29a2.015 2.015 0 0 0 -2-2 2.006 2.006 0 0 0 -2 2v-1a2.015 2.015 0 0 0 -2-2h2v-26z" fill="#bddbff"/><path d="m43 36v4a2.015 2.015 0 0 0 -2-2 2.006 2.006 0 0 0 -2 2h-10a2.006 2.006 0 0 0 2-2 2.006 2.006 0 0 1 2-2z" fill="#bddbff"/><path d="m31 23v15a2 2 0 0 1 -4 0v-29h4z" fill="#bddbff"/><path d="m29 40h-26v-30h4v26h18a2.006 2.006 0 0 1 2 2 2.006 2.006 0 0 0 2 2z" fill="#bddbff"/><g fill="#3d9ae2"><path d="m10 10h14v2h-14z"/><path d="m10 14h14v2h-14z"/><path d="m10 18h14v2h-14z"/><path d="m10 22h14v2h-14z"/><path d="m10 26h14v2h-14z"/><path d="m10 30h14v2h-14z"/><path d="m34 10h14v2h-14z"/><path d="m34 14h14v2h-14z"/><path d="m34 18h14v2h-14z"/><path d="m34 22h14v2h-14z"/><path d="m34 26h6v2h-6z"/><path d="m34 30h6v2h-6z"/><path d="m57 37a2.949 2.949 0 0 0 -1 .194v-27.194a1 1 0 0 0 -1-1h-3v-3a1 1 0 0 0 -1-1h-18a3 3 0 0 0 -3 3h-2a3 3 0 0 0 -3-3h-18a1 1 0 0 0 -1 1v3h-3a1 1 0 0 0 -1 1v30a1 1 0 0 0 1 1h35v10a1 1 0 0 0 .219.625l3.781 4.726v4.649a1 1 0 0 0 1 1h14a1 1 0 0 0 1-1v-4.808l1.929-4.82a1.012 1.012 0 0 0 .071-.372v-11a3 3 0 0 0 -3-3zm-3-26v25.194a2.674 2.674 0 0 0 -2 0v-25.194zm-22-3a1 1 0 0 1 1-1h17v28.194a2.949 2.949 0 0 0 -1-.194 3 3 0 0 0 -1 .171v-6.171a3 3 0 0 0 -6 0v6h-9a2.966 2.966 0 0 0 -1 .184zm6.184 31h-6.368a2.966 2.966 0 0 0 .184-1 1 1 0 0 1 1-1h9v.171a2.988 2.988 0 0 0 -3.816 1.829zm-30.184-32h17a1 1 0 0 1 1 1v27.184a2.966 2.966 0 0 0 -1-.184h-17zm-4 4h2v25a1 1 0 0 0 1 1h18a1 1 0 0 1 1 1 2.966 2.966 0 0 0 .184 1h-22.184zm24 27v-28h2v28a1 1 0 0 1 -2 0zm30 12.808-1.929 4.82a1.012 1.012 0 0 0 -.071.372v4h-12v-4a1 1 0 0 0 -.219-.625l-3.781-4.726v-10.649a1 1 0 0 1 2 0v5a1 1 0 0 0 2 0v-16a1 1 0 0 1 2 0v14a1 1 0 0 0 2 0v-5a1 1 0 0 1 2 0v6a1 1 0 0 0 2 0v-5a1 1 0 0 1 2 0v6a1 1 0 0 0 2 0v-5a1 1 0 0 1 2 0z"/></g></svg>